<?xml version="1.0" encoding="UTF-8"?>
<svg width="291px" height="37px" viewBox="0 0 291 37" version="1.1" xmlns="http://www.w3.org/2000/svg" xmlns:xlink="http://www.w3.org/1999/xlink">
    <!-- Generator: Sketch 52.6 (67491) - http://www.bohemiancoding.com/sketch -->
    <title>Group</title>
    <desc>Created with Sketch.</desc>
    <defs>
        <linearGradient x1="50%" y1="0%" x2="50%" y2="100%" id="linearGradient-1">
            <stop stop-color="#FAD961" offset="0%"></stop>
            <stop stop-color="#F76B1C" offset="100%"></stop>
        </linearGradient>
    </defs>
    <g id="Page-1" stroke="none" stroke-width="1" fill="none" fill-rule="evenodd">
        <g id="Group" transform="translate(0.000000, -3.000000)">
            <g id="Group-2" transform="translate(52.000000, 0.000000)" fill="url(#linearGradient-1)" font-family="STYuanti-SC-Regular, Yuanti SC" font-weight="normal">
                <text id="金融标准实施反馈平台" font-size="24">
                    <tspan x="0" y="23.5">金融标准实施反馈平台</tspan>
                </text>
                <text id="Feedback-Platform-Fo" font-size="9">
                    <tspan x="2.3385" y="37.5909091">Feedback Platform For Financial Standards Implementation</tspan>
                </text>
            </g>
            <g id="Standard" transform="translate(0.000000, 3.636364)" fill-rule="nonzero">
                <path d="M21.5221509,36.024555 C20.5708931,36.4766635 19.3338427,36.4766635 18.3802782,36.024555 L0.570720104,27.9185276 C-0.190240035,27.6144919 -0.190240035,26.8563294 0.570720104,26.5524772 L4.76096014,24.6607405 C5.04956055,24.5075477 5.42569354,24.5075477 5.71429395,24.6607405 L16.5709508,29.5836595 C17.6186261,30.0385203 18.7622576,30.2669599 20.000692,30.2669599 C21.2377424,30.2669599 22.3813739,30.0385203 23.4297412,29.5836595 L34.285706,24.6607405 C34.5733852,24.507554 34.9488234,24.507554 35.2365026,24.6607405 L39.4269733,26.5522937 C40.1907014,26.8561459 40.1907014,27.6144919 39.4269733,27.9183441 L21.5221509,36.024555 Z M21.5221509,26.9315585 C20.5708931,27.3877037 19.3338427,27.3877037 18.3802782,26.9315585 L0.570720104,18.8257146 C-0.190240035,18.5238807 -0.190240035,17.7655347 0.570720104,17.4635174 L4.76072947,15.5679275 C5.05015854,15.4169257 5.42463422,15.4169257 5.71406329,15.5679275 L16.5709508,20.4928648 C17.6186261,20.9455238 18.7622576,21.1743304 20.000692,21.1743304 C21.2377424,21.1743304 22.3813739,20.9455238 23.4297412,20.4928648 L34.285706,15.5679275 C34.5741481,15.4167514 34.9480606,15.4167514 35.2365026,15.5679275 L39.4272039,17.4637009 C40.190932,17.7657182 40.190932,18.5240642 39.4272039,18.8257146 L21.5221509,26.9311915 L21.5221509,26.9315585 Z" id="Shape" fill="#F89536"></path>
                <path d="M18.4314775,17.8977799 L0.569707639,9.80036327 C-0.189902546,9.49701029 -0.189902546,8.74128562 0.569707639,8.43756605 L18.4314775,0.340516009 C19.3823133,-0.113505336 20.6180318,-0.113505336 21.5688677,0.340516009 L39.4306375,8.43774934 C40.1897875,8.74128562 40.1897875,9.49682699 39.4306375,9.80054656 L21.5681774,17.8979632 C20.6180318,18.2764671 19.3825435,18.2764671 18.4314775,17.8977799 Z" id="Path" fill="#F9C957"></path>
            </g>
        </g>
    </g>
</svg>