<?xml version="1.0" encoding="UTF-8"?>
<svg width="318px" height="36px" viewBox="0 0 318 36" version="1.1" xmlns="http://www.w3.org/2000/svg" xmlns:xlink="http://www.w3.org/1999/xlink">
    <!-- Generator: Sketch 52.6 (67491) - http://www.bohemiancoding.com/sketch -->
    <title>Group</title>
    <desc>Created with Sketch.</desc>
    <defs>
        <linearGradient x1="50%" y1="0%" x2="50%" y2="97.7118501%" id="linearGradient-1">
            <stop stop-color="#60B0FF" offset="0%"></stop>
            <stop stop-color="#0766D9" offset="100%"></stop>
        </linearGradient>
        <path shape-rendering="optimizeQuality" d="M7.05575904,12.9779535 C6.02375904,13.5779535 4.96775904,14.1299535 3.86375904,14.6339535 L2.39975904,12.5219535 C6.55175904,10.7459535 9.91175904,8.44195349 12.455759,5.63395349 L14.471759,5.63395349 C16.679759,8.36995349 20.015759,10.6739535 24.455759,12.4979535 L23.015759,14.6099535 C21.887759,14.1299535 20.831759,13.6259535 19.871759,13.0739535 L19.871759,14.2979535 L14.711759,14.2979535 L14.711759,16.9619535 L22.967759,16.9619535 L22.967759,19.2899535 L14.711759,19.2899535 L14.711759,24.9539535 L16.775759,24.9539535 C17.495759,23.4659535 18.119759,21.9059535 18.671759,20.2499535 L20.927759,21.0899535 C20.423759,22.5299535 19.871759,23.8019535 19.295759,24.9539535 L23.831759,24.9539535 L23.831759,27.3299535 L3.07175904,27.3299535 L3.07175904,24.9539535 L7.67975904,24.9539535 C7.24775904,23.6579535 6.69575904,22.4099535 6.04775904,21.2579535 L8.32775904,20.4179535 C8.97575904,21.6899535 9.57575904,23.2019535 10.103759,24.9539535 L12.215759,24.9539535 L12.215759,19.2899535 L3.93575904,19.2899535 L3.93575904,16.9619535 L12.215759,16.9619535 L12.215759,14.2979535 L7.05575904,14.2979535 L7.05575904,12.9779535 Z M18.191759,12.0659535 C16.367759,10.8659535 14.783759,9.49795349 13.463759,7.98595349 C11.975759,9.52195349 10.319759,10.8659535 8.51975904,12.0659535 L18.191759,12.0659535 Z M41.663759,9.61795349 L44.903759,9.61795349 L44.903759,5.70595349 L47.231759,5.70595349 L47.231759,9.61795349 L50.591759,9.61795349 L50.591759,19.8419535 L47.231759,19.8419535 L47.231759,24.2579535 C47.735759,24.1619535 48.239759,24.0419535 48.743759,23.9459535 C48.527759,23.1059535 48.311759,22.2899535 48.071759,21.5219535 L49.991759,20.8979535 C50.615759,22.6739535 51.143759,24.7139535 51.623759,27.0179535 L49.511759,27.5459535 L49.223759,26.0819535 C46.919759,26.6099535 44.471759,27.0899535 41.927759,27.4739535 L41.351759,25.1459535 C42.551759,25.0019535 43.727759,24.8579535 44.903759,24.6899535 L44.903759,19.8419535 L41.663759,19.8419535 L41.663759,9.61795349 Z M48.479759,17.6819535 L48.479759,11.7779535 L47.111759,11.7779535 L47.111759,17.6819535 L48.479759,17.6819535 Z M45.047759,17.6819535 L45.047759,11.7779535 L43.775759,11.7779535 L43.775759,17.6819535 L45.047759,17.6819535 Z M29.687759,6.35395349 L41.327759,6.35395349 L41.327759,8.60995349 L29.687759,8.60995349 L29.687759,6.35395349 Z M30.959759,9.54595349 L39.959759,9.54595349 L39.959759,15.1139535 L30.959759,15.1139535 L30.959759,9.54595349 Z M37.775759,13.1939535 L37.775759,11.4659535 L33.167759,11.4659535 L33.167759,13.1939535 L37.775759,13.1939535 Z M32.687759,21.5699535 L33.599759,21.5699535 C33.335759,20.7539535 33.023759,19.9619535 32.663759,19.1939535 L34.223759,18.6899535 C34.559759,19.4339535 34.871759,20.2979535 35.135759,21.2579535 L33.983759,21.5699535 L35.567759,21.5699535 C35.927759,20.6099535 36.263759,19.6019535 36.551759,18.5459535 L38.207759,19.1459535 C37.919759,20.0339535 37.631759,20.8499535 37.319759,21.5699535 L38.231759,21.5699535 L38.231759,23.4419535 L36.359759,23.4419535 L36.359759,27.5219535 L34.391759,27.5219535 L34.391759,23.4419535 L32.687759,23.4419535 L32.687759,21.5699535 Z M38.903759,27.6419535 L37.223759,27.6419535 L36.647759,25.4579535 L38.183759,25.5539535 C38.567759,25.5539535 38.759759,25.4099535 38.759759,25.1459535 L38.759759,18.1139535 L32.159759,18.1139535 L32.159759,27.8579535 L29.999759,27.8579535 L29.999759,16.0499535 L40.919759,16.0499535 L40.919759,25.6259535 C40.919759,26.9699535 40.247759,27.6419535 38.903759,27.6419535 Z M59.639759,5.65795349 L62.111759,5.65795349 L62.111759,9.92995349 L64.631759,9.92995349 L64.631759,12.3539535 L62.111759,12.3539535 L62.111759,13.7939535 C63.215759,14.8979535 64.343759,16.1219535 65.495759,17.4659535 L64.079759,19.6019535 C63.335759,18.4019535 62.687759,17.3939535 62.111759,16.5779535 L62.111759,27.8099535 L59.639759,27.8099535 L59.639759,17.3699535 C58.967759,19.1459535 58.175759,20.8259535 57.263759,22.3619535 L56.183759,19.6259535 C57.743759,17.4899535 58.895759,15.0659535 59.615759,12.3539535 L56.975759,12.3539535 L56.975759,9.92995349 L59.639759,9.92995349 L59.639759,5.65795349 Z M66.743759,16.5779535 L69.023759,17.0819535 C68.279759,20.4419535 67.223759,23.3219535 65.831759,25.7699535 L63.647759,24.3779535 C65.111759,21.9299535 66.143759,19.3379535 66.743759,16.5779535 Z M76.199759,16.3619535 C77.111759,19.0499535 77.927759,21.9299535 78.599759,25.0019535 L76.295759,26.0339535 C75.575759,22.6739535 74.807759,19.7219535 73.967759,17.1299535 L76.199759,16.3619535 Z M70.391759,27.5459535 L67.967759,27.5459535 L67.439759,25.2179535 C68.183759,25.3139535 68.879759,25.3619535 69.551759,25.3619535 C70.103759,25.3619535 70.391759,25.0259535 70.391759,24.4019535 L70.391759,14.9459535 L64.823759,14.9459535 L64.823759,12.5459535 L78.503759,12.5459535 L78.503759,14.9459535 L72.887759,14.9459535 L72.887759,25.0259535 C72.887759,26.7059535 72.047759,27.5459535 70.391759,27.5459535 Z M66.071759,6.78595349 L77.255759,6.78595349 L77.255759,9.16195349 L66.071759,9.16195349 L66.071759,6.78595349 Z M85.607759,6.18595349 C87.143759,8.34595349 88.295759,10.2419535 89.111759,11.8499535 L87.023759,13.2899535 C86.159759,11.5619535 84.959759,9.64195349 83.447759,7.52995349 L85.607759,6.18595349 Z M86.879759,16.7699535 L89.159759,17.6819535 C88.175759,21.2339535 87.071759,24.5939535 85.871759,27.7139535 L83.495759,26.6579535 C84.791759,23.4419535 85.919759,20.1299535 86.879759,16.7699535 Z M93.599759,16.6739535 L93.599759,19.1699535 L97.799759,19.1699535 L97.799759,16.6739535 L93.599759,16.6739535 Z M93.599759,21.4499535 L93.599759,24.2099535 L97.799759,24.2099535 L97.799759,21.4499535 L93.599759,21.4499535 Z M93.599759,26.5379535 L93.599759,27.8339535 L91.151759,27.8339535 L91.151759,14.7539535 C90.575759,15.5939535 89.975759,16.4099535 89.351759,17.2019535 L88.535759,14.6099535 C90.503759,11.8739535 91.895759,8.84995349 92.711759,5.58595349 L95.087759,6.06595349 C94.775759,7.21795349 94.391759,8.34595349 93.959759,9.44995349 L98.159759,9.44995349 C97.775759,8.27395349 97.367759,7.14595349 96.887759,6.06595349 L99.311759,5.39395349 C99.815759,6.88195349 100.223759,8.22595349 100.535759,9.44995349 L104.903759,9.44995349 L104.903759,11.8019535 L100.223759,11.8019535 L100.223759,14.3699535 L104.399759,14.3699535 L104.399759,16.6739535 L100.223759,16.6739535 L100.223759,19.1699535 L104.447759,19.1699535 L104.447759,21.4499535 L100.223759,21.4499535 L100.223759,24.2099535 L105.407759,24.2099535 L105.407759,26.5379535 L93.599759,26.5379535 Z M97.799759,11.8019535 L93.599759,11.8019535 L93.599759,14.3699535 L97.799759,14.3699535 L97.799759,11.8019535 Z M121.631759,23.1299535 C119.663759,25.1699535 116.567759,26.7299535 112.343759,27.8339535 L110.975759,25.7219535 C115.439759,24.5219535 118.463759,23.0339535 119.999759,21.2579535 C120.095759,21.1379535 120.167759,21.0179535 120.263759,20.9219535 L111.215759,20.9219535 L111.215759,18.5699535 L121.583759,18.5699535 C122.159759,17.1779535 122.495759,15.5939535 122.591759,13.8419535 L122.591759,10.8659535 L125.015759,10.8659535 L125.015759,13.8419535 C124.919759,15.5939535 124.655759,17.1779535 124.223759,18.5699535 L131.687759,18.5699535 L131.687759,20.9219535 L123.215759,20.9219535 L122.999759,21.3059535 C126.287759,22.6019535 129.311759,24.0899535 132.047759,25.7939535 L130.655759,27.9779535 C127.703759,25.9859535 124.703759,24.3779535 121.631759,23.1299535 Z M114.743759,14.0339535 C116.423759,14.7059535 117.983759,15.5219535 119.375759,16.4819535 L118.079759,18.4739535 C116.591759,17.3699535 115.079759,16.5059535 113.495759,15.8819535 L114.743759,14.0339535 Z M117.191759,10.6979535 C118.823759,11.3459535 120.335759,12.1379535 121.727759,13.0979535 L120.431759,15.0899535 C118.967759,13.9859535 117.479759,13.1459535 115.943759,12.5459535 L117.191759,10.6979535 Z M131.567759,7.60195349 L131.567759,12.6659535 L129.119759,12.6659535 L129.119759,9.90595349 L113.711759,9.90595349 L113.711759,12.6659535 L111.263759,12.6659535 L111.263759,7.60195349 L120.215759,7.60195349 C119.975759,6.97795349 119.735759,6.42595349 119.471759,5.89795349 L122.039759,5.46595349 C122.303759,6.11395349 122.543759,6.83395349 122.783759,7.60195349 L131.567759,7.60195349 Z M137.735759,8.72995349 L141.095759,8.72995349 C140.711759,7.72195349 140.303759,6.78595349 139.823759,5.89795349 L142.391759,5.46595349 C142.775759,6.42595349 143.159759,7.50595349 143.543759,8.72995349 L146.327759,8.72995349 L146.327759,11.1299535 L141.695759,11.1299535 L141.695759,13.7459535 L145.943759,13.7459535 C145.943759,20.0579535 145.823759,23.9459535 145.631759,25.4339535 C145.391759,26.8979535 144.263759,27.6419535 142.271759,27.6419535 C142.079759,27.6419535 141.767759,27.5939535 141.359759,27.5219535 L140.783759,25.2899535 C141.215759,25.3619535 141.575759,25.4099535 141.887759,25.4099535 C142.727759,25.4099535 143.231759,25.0019535 143.375759,24.2339535 C143.495759,23.4659535 143.567759,20.7299535 143.615759,16.0499535 L141.671759,16.0499535 C141.527759,21.3059535 140.639759,25.1939535 139.031759,27.7139535 L137.159759,26.0579535 C138.599759,23.7299535 139.319759,20.0099535 139.343759,14.8739535 L139.343759,11.1299535 L137.735759,11.1299535 L137.735759,8.72995349 Z M149.807759,10.3139535 C149.327759,11.3699535 148.799759,12.3059535 148.247759,13.1699535 L150.383759,13.1699535 L150.383759,15.5219535 L151.991759,14.9459535 L151.991759,11.2259535 L154.295759,11.2259535 L154.295759,14.1299535 L158.111759,12.7619535 C158.111759,17.4179535 158.015759,20.2259535 157.823759,21.2099535 C157.583759,22.1939535 156.647759,22.6979535 155.015759,22.6979535 L154.991759,22.6979535 L154.343759,20.5859535 C154.751759,20.5859535 155.111759,20.6099535 155.447759,20.6099535 C155.639759,20.6099535 155.759759,20.3699535 155.807759,19.9379535 C155.855759,19.5539535 155.879759,18.2099535 155.879759,15.8579535 L154.295759,16.4099535 L154.295759,24.2099535 L151.991759,24.2099535 L151.991759,17.2259535 L150.383759,17.8019535 L150.383759,23.8259535 C150.383759,24.9299535 150.719759,25.4819535 151.415759,25.4819535 L155.831759,25.4819535 C156.311759,25.4819535 156.647759,25.3379535 156.887759,25.0979535 C157.151759,24.8339535 157.319759,24.0179535 157.415759,22.6739535 L159.575759,23.3459535 C159.359759,25.4339535 158.999759,26.6819535 158.471759,27.0899535 C157.991759,27.4499535 157.247759,27.6419535 156.239759,27.6419535 L150.719759,27.6419535 C149.015759,27.6419535 148.175759,26.5139535 148.175759,24.2579535 L148.175759,18.5699535 L146.543759,19.1459535 L146.543759,16.8899535 L148.175759,16.3139535 L148.175759,13.2899535 C147.839759,13.8179535 147.479759,14.3219535 147.143759,14.7539535 L145.535759,12.7859535 C146.903759,11.0579535 148.103759,8.63395349 149.135759,5.51395349 L151.487759,6.04195349 C151.247759,6.71395349 151.031759,7.36195349 150.791759,7.98595349 L158.927759,7.98595349 L158.927759,10.3139535 L149.807759,10.3139535 Z M179.519759,11.4179535 C179.423759,11.7539535 179.351759,12.0659535 179.255759,12.4019535 C179.783759,14.7779535 180.431759,16.8659535 181.223759,18.6659535 C181.943759,16.5539535 182.351759,14.1299535 182.447759,11.4179535 L179.519759,11.4179535 Z M180.071759,21.2339535 C179.303759,19.6499535 178.631759,17.8739535 178.055759,15.9059535 C177.695759,16.6979535 177.311759,17.4419535 176.927759,18.1139535 L175.367759,16.1699535 C176.687759,13.5299535 177.575759,10.0019535 178.031759,5.58595349 L180.479759,6.01795349 C180.335759,7.07395349 180.191759,8.05795349 180.023759,8.99395349 L186.023759,8.99395349 L186.023759,11.4179535 L184.703759,11.4179535 C184.559759,15.2819535 183.863759,18.5699535 182.591759,21.3059535 C183.743759,23.2259535 185.111759,24.7379535 186.695759,25.8179535 L185.303759,27.8579535 C183.815759,26.7539535 182.495759,25.3139535 181.367759,23.5379535 C180.239759,25.2179535 178.847759,26.6579535 177.215759,27.8339535 L175.919759,25.7219535 C177.647759,24.5699535 179.039759,23.0819535 180.071759,21.2339535 Z M168.719759,16.7219535 L171.071759,17.0099535 C170.927759,17.3699535 170.807759,17.7299535 170.687759,18.0659535 L175.511759,18.0659535 L175.511759,20.0819535 C175.103759,21.4739535 174.383759,22.7219535 173.327759,23.7779535 C174.263759,24.1859535 175.175759,24.6179535 176.063759,25.0979535 L174.719759,27.0659535 C173.807759,26.5139535 172.703759,25.9379535 171.407759,25.3379535 C169.823759,26.3459535 167.855759,27.1379535 165.479759,27.7619535 L164.327759,25.6739535 C166.055759,25.2899535 167.543759,24.7859535 168.815759,24.2099535 C167.855759,23.8019535 166.823759,23.3939535 165.767759,22.9859535 C166.343759,22.0259535 166.847759,21.0899535 167.279759,20.2019535 L164.903759,20.2019535 L164.903759,18.0659535 L168.239759,18.0659535 C168.407759,17.5859535 168.575759,17.1539535 168.719759,16.7219535 Z M171.071759,22.8419535 C172.055759,22.0739535 172.799759,21.1859535 173.303759,20.2019535 L169.751759,20.2019535 C169.439759,20.8259535 169.103759,21.4259535 168.767759,22.0019535 C169.535759,22.2419535 170.303759,22.5299535 171.071759,22.8419535 Z M167.255759,5.94595349 C167.759759,6.83395349 168.215759,7.79395349 168.599759,8.82595349 L166.823759,9.61795349 C166.343759,8.46595349 165.839759,7.45795349 165.311759,6.56995349 L167.255759,5.94595349 Z M173.999759,5.92195349 L175.751759,6.76195349 C175.271759,7.76995349 174.671759,8.75395349 173.927759,9.71395349 L172.175759,8.82595349 C172.943759,7.84195349 173.567759,6.88195349 173.999759,5.92195349 Z M164.951759,9.97795349 L169.415759,9.97795349 L169.415759,5.63395349 L171.719759,5.63395349 L171.719759,9.97795349 L175.799759,9.97795349 L175.799759,12.1619535 L171.719759,12.1619535 L171.719759,12.2099535 C172.967759,12.7139535 174.239759,13.2899535 175.535759,13.9379535 L174.239759,15.9059535 C173.231759,15.1139535 172.391759,14.4899535 171.719759,14.0339535 L171.719759,16.5539535 L169.415759,16.5539535 L169.415759,12.7859535 C168.599759,14.4179535 167.351759,15.8339535 165.623759,17.0819535 L164.375759,15.0659535 C165.935759,14.1779535 167.087759,13.2179535 167.807759,12.1619535 L164.951759,12.1619535 L164.951759,9.97795349 Z M194.399759,27.5939535 L192.359759,27.5939535 L191.831759,25.2419535 C192.431759,25.3379535 193.007759,25.4099535 193.559759,25.4099535 C194.063759,25.4099535 194.327759,25.0979535 194.327759,24.4979535 L194.327759,19.6499535 C193.511759,19.9379535 192.719759,20.2259535 191.903759,20.4899535 L191.255759,18.0179535 C192.287759,17.7779535 193.319759,17.4899535 194.327759,17.1539535 L194.327759,12.3539535 L191.735759,12.3539535 L191.735759,9.92995349 L194.327759,9.92995349 L194.327759,5.68195349 L196.775759,5.68195349 L196.775759,9.92995349 L198.815759,9.92995349 L198.815759,12.3539535 L196.775759,12.3539535 L196.775759,16.1699535 C197.447759,15.8579535 198.095759,15.5459535 198.719759,15.2099535 L198.719759,17.6579535 C198.047759,17.9939535 197.399759,18.3059535 196.775759,18.6179535 L196.775759,25.1219535 C196.775759,26.7539535 195.983759,27.5939535 194.399759,27.5939535 Z M201.983759,17.2499535 C201.695759,21.2579535 200.783759,24.7859535 199.271759,27.8579535 L197.303759,26.1059535 C198.863759,23.0579535 199.655759,19.1219535 199.679759,14.3219535 L199.679759,6.35395349 L212.831759,6.35395349 L212.831759,12.7139535 L208.511759,12.7139535 L208.511759,14.9699535 L213.359759,14.9699535 L213.359759,17.2499535 L208.511759,17.2499535 L208.511759,19.5539535 L212.303759,19.5539535 L212.303759,27.8099535 L209.999759,27.8099535 L209.999759,26.8259535 L204.599759,26.8259535 L204.599759,27.8099535 L202.295759,27.8099535 L202.295759,19.5539535 L206.063759,19.5539535 L206.063759,17.2499535 L201.983759,17.2499535 Z M206.063759,12.7139535 L202.103759,12.7139535 L202.103759,14.3219535 C202.103759,14.5379535 202.079759,14.7539535 202.079759,14.9699535 L206.063759,14.9699535 L206.063759,12.7139535 Z M204.599759,24.6179535 L209.999759,24.6179535 L209.999759,21.7619535 L204.599759,21.7619535 L204.599759,24.6179535 Z M210.383759,8.63395349 L202.103759,8.63395349 L202.103759,10.5059535 L210.383759,10.5059535 L210.383759,8.63395349 Z M219.671759,6.44995349 L239.279759,6.44995349 L239.279759,8.89795349 L230.615759,8.89795349 L230.615759,17.1539535 L240.167759,17.1539535 L240.167759,19.5779535 L230.615759,19.5779535 L230.615759,27.7859535 L228.071759,27.7859535 L228.071759,19.5779535 L218.711759,19.5779535 L218.711759,17.1539535 L228.071759,17.1539535 L228.071759,8.89795349 L219.671759,8.89795349 L219.671759,6.44995349 Z M223.199759,9.85795349 C224.063759,11.4659535 224.879759,13.2419535 225.695759,15.2099535 L223.343759,16.3619535 C222.575759,14.3699535 221.735759,12.5699535 220.871759,10.9859535 L223.199759,9.85795349 Z M235.895759,9.76195349 L238.175759,10.8419535 C237.503759,12.6899535 236.615759,14.4899535 235.535759,16.2179535 L233.279759,15.0659535 C234.383759,13.2899535 235.247759,11.5139535 235.895759,9.76195349 Z M264.719759,17.5619535 L264.719759,27.8579535 L262.175759,27.8579535 L262.175759,26.9459535 L250.703759,26.9459535 L250.703759,27.8579535 L248.159759,27.8579535 L248.159759,17.5619535 L264.719759,17.5619535 Z M250.703759,24.5459535 L262.175759,24.5459535 L262.175759,19.9619535 L250.703759,19.9619535 L250.703759,24.5459535 Z M246.647759,15.4259535 L246.191759,13.0499535 C247.871759,12.7859535 250.367759,10.2659535 253.631759,5.48995349 L256.223759,6.40195349 C254.375759,8.94595349 252.479759,11.1539535 250.511759,12.9779535 C254.399759,12.7859535 258.191759,12.5219535 261.887759,12.1859535 C261.167759,11.1299535 260.423759,10.1219535 259.679759,9.18595349 L261.959759,8.10595349 C263.879759,10.5059535 265.679759,13.1459535 267.407759,16.0499535 L264.959759,17.2499535 C264.431759,16.2659535 263.879759,15.3299535 263.327759,14.4179535 C258.335759,14.8739535 252.767759,15.2099535 246.647759,15.4259535 Z" id="path-2"></path>
        <linearGradient x1="50%" y1="0%" x2="50%" y2="97.7118501%" id="linearGradient-3">
            <stop stop-color="#3F90E1" offset="0%"></stop>
            <stop stop-color="#0766D9" offset="100%"></stop>
        </linearGradient>
        <path shape-rendering="optimizeQuality" d="M6.15450575,38.2561009 C6.45040567,38.2561009 6.6935673,38.2253395 6.88399794,38.1638158 C7.22384339,38.0495574 7.50216092,37.829833 7.71895887,37.5046361 C7.8918113,37.2438926 8.01632178,36.9099116 8.09249403,36.502683 C8.13643956,36.2595177 8.158412,36.033934 8.158412,35.8259252 C8.158412,35.0261165 7.99947804,34.4050289 7.68160536,33.9626439 C7.36373268,33.5202589 6.85177491,33.2990697 6.14571669,33.2990697 L4.59444716,33.2990697 L4.59444716,38.2561009 L6.15450575,38.2561009 Z M3.71554091,32.5476048 L6.330287,32.5476048 C7.21798675,32.5476048 7.90645643,32.8625431 8.39571669,33.4924291 C8.83224231,34.0607913 9.05050184,34.7888113 9.05050184,35.6765111 C9.05050184,36.3620614 8.92159688,36.9816841 8.66378309,37.5353978 C8.20967926,38.5139183 7.42892535,39.0031712 6.32149794,39.0031712 L3.71554091,39.0031712 L3.71554091,32.5476048 Z M11.5764784,37.7507298 C11.5764784,37.9792466 11.6599736,38.1594206 11.8269667,38.2912572 C11.9939597,38.4230938 12.1917116,38.4890111 12.4202284,38.4890111 C12.6985501,38.4890111 12.9680786,38.4245586 13.2288221,38.2956517 C13.6682775,38.0817835 13.8880018,37.7316893 13.8880018,37.2453587 L13.8880018,36.6081517 C13.7913216,36.6696755 13.6668112,36.7209445 13.5144667,36.7619603 C13.3621222,36.8029761 13.2127096,36.8322727 13.0662245,36.8498509 L12.5872206,36.9113744 C12.3001098,36.9494605 12.0847799,37.0095185 11.9412245,37.0915502 C11.6980592,37.2292462 11.5764784,37.4489705 11.5764784,37.7507298 Z M13.492494,36.1511205 C13.6741355,36.1276828 13.7957164,36.0515117 13.8572401,35.9226048 C13.8923965,35.852292 13.9099745,35.7512188 13.9099745,35.6193822 C13.9099745,35.3498496 13.8140282,35.1542949 13.6221327,35.0327123 C13.4302372,34.9111296 13.1555817,34.8503392 12.7981581,34.8503392 C12.3850701,34.8503392 12.0921042,34.9616662 11.9192518,35.1843236 C11.8225716,35.3073711 11.759584,35.4904747 11.730287,35.73364 L10.9920057,35.73364 C11.0066542,35.153559 11.1948848,34.7499986 11.556703,34.5229466 C11.9185212,34.2958947 12.3381947,34.1823705 12.8157362,34.1823705 C13.3694499,34.1823705 13.8191524,34.2878382 14.1648573,34.4987767 C14.5076324,34.7097153 14.6790174,35.037837 14.6790174,35.4831517 L14.6790174,38.1945775 C14.6790174,38.2766092 14.695863,38.3425265 14.7295546,38.3923314 C14.7632461,38.4421363 14.8342903,38.4670384 14.9426893,38.4670384 C14.9778457,38.4670384 15.0173961,38.4648412 15.0613417,38.4604466 C15.1052872,38.4560521 15.1521617,38.4494604 15.2019667,38.4406712 L15.2019667,39.0251439 C15.0789192,39.0603003 14.9851701,39.0822728 14.9207167,39.0910619 C14.8562632,39.099851 14.7683735,39.1042455 14.6570448,39.1042455 C14.3845825,39.1042455 14.1868306,39.0075667 14.0637831,38.8142064 C13.9993296,38.7116668 13.9539199,38.5666487 13.9275526,38.3791478 C13.766419,38.5900864 13.534976,38.77319 13.2332167,38.9284642 C12.9314573,39.0837384 12.5989411,39.1613744 12.2356581,39.1613744 C11.7991324,39.1613744 11.4424466,39.0288073 11.1655897,38.7636693 C10.8887329,38.4985312 10.7503065,38.1667475 10.7503065,37.768308 C10.7503065,37.3317823 10.8865356,36.9934068 11.1589979,36.7531712 C11.4314602,36.5129357 11.7888785,36.3649879 12.2312635,36.3093236 L13.492494,36.1511205 Z M17.0336073,32.9826634 L17.833412,32.9826634 L17.833412,34.2966283 L18.5848768,34.2966283 L18.5848768,34.9426244 L17.833412,34.9426244 L17.833412,38.0144017 C17.833412,38.178465 17.8890755,38.2883272 18.0004041,38.3439916 C18.0619279,38.3762183 18.1644659,38.3923314 18.3080213,38.3923314 C18.3461075,38.3923314 18.3871227,38.391599 18.4310682,38.3901341 C18.4750137,38.3886693 18.5262828,38.3850072 18.5848768,38.3791478 L18.5848768,39.0031712 C18.494056,39.0295386 18.3995746,39.0485813 18.3014295,39.0603002 C18.2032845,39.072019 18.0970844,39.0778783 17.982826,39.0778783 C17.6136835,39.0778783 17.3631978,38.9833968 17.2313612,38.794431 C17.0995246,38.6054652 17.0336073,38.3601063 17.0336073,38.058347 L17.0336073,34.9426244 L16.3964002,34.9426244 L16.3964002,34.2966283 L17.0336073,34.2966283 L17.0336073,32.9826634 Z M20.8823377,37.7507298 C20.8823377,37.9792466 20.965833,38.1594206 21.132826,38.2912572 C21.299819,38.4230938 21.4975709,38.4890111 21.7260877,38.4890111 C22.0044094,38.4890111 22.273938,38.4245586 22.5346815,38.2956517 C22.9741368,38.0817835 23.1938611,37.7316893 23.1938611,37.2453587 L23.1938611,36.6081517 C23.097181,36.6696755 22.9726705,36.7209445 22.820326,36.7619603 C22.6679815,36.8029761 22.5185689,36.8322727 22.3720838,36.8498509 L21.8930799,36.9113744 C21.6059691,36.9494605 21.3906392,37.0095185 21.2470838,37.0915502 C21.0039185,37.2292462 20.8823377,37.4489705 20.8823377,37.7507298 Z M22.7983533,36.1511205 C22.9799949,36.1276828 23.1015757,36.0515117 23.1630994,35.9226048 C23.1982559,35.852292 23.2158338,35.7512188 23.2158338,35.6193822 C23.2158338,35.3498496 23.1198875,35.1542949 22.927992,35.0327123 C22.7360965,34.9111296 22.4614411,34.8503392 22.1040174,34.8503392 C21.6909294,34.8503392 21.3979636,34.9616662 21.2251111,35.1843236 C21.128431,35.3073711 21.0654433,35.4904747 21.0361463,35.73364 L20.2978651,35.73364 C20.3125136,35.153559 20.5007441,34.7499986 20.8625623,34.5229466 C21.2243805,34.2958947 21.6440541,34.1823705 22.1215955,34.1823705 C22.6753092,34.1823705 23.1250118,34.2878382 23.4707166,34.4987767 C23.8134918,34.7097153 23.9848768,35.037837 23.9848768,35.4831517 L23.9848768,38.1945775 C23.9848768,38.2766092 24.0017223,38.3425265 24.0354139,38.3923314 C24.0691055,38.4421363 24.1401497,38.4670384 24.2485486,38.4670384 C24.2837051,38.4670384 24.3232555,38.4648412 24.367201,38.4604466 C24.4111465,38.4560521 24.4580211,38.4494604 24.507826,38.4406712 L24.507826,39.0251439 C24.3847785,39.0603003 24.2910294,39.0822728 24.226576,39.0910619 C24.1621225,39.099851 24.0742328,39.1042455 23.9629041,39.1042455 C23.6904418,39.1042455 23.4926899,39.0075667 23.3696424,38.8142064 C23.3051889,38.7116668 23.2597792,38.5666487 23.2334119,38.3791478 C23.0722783,38.5900864 22.8408353,38.77319 22.539076,38.9284642 C22.2373167,39.0837384 21.9048005,39.1613744 21.5415174,39.1613744 C21.1049918,39.1613744 20.7483059,39.0288073 20.471449,38.7636693 C20.1945922,38.4985312 20.0561658,38.1667475 20.0561658,37.768308 C20.0561658,37.3317823 20.1923949,36.9934068 20.4648572,36.7531712 C20.7373195,36.5129357 21.0947378,36.3649879 21.5371229,36.3093236 L22.7983533,36.1511205 Z M29.7707166,32.5476048 L32.6755017,32.5476048 C33.2497233,32.5476048 33.7126093,32.7094685 34.0641736,33.0332005 C34.4157379,33.3569326 34.5915173,33.8117621 34.5915173,34.3977025 C34.5915173,34.9016113 34.4347806,35.3403276 34.1213025,35.7138646 C33.8078244,36.0874016 33.3258956,36.2741673 32.6755017,36.2741673 L30.6452283,36.2741673 L30.6452283,39.0031712 L29.7707166,39.0031712 L29.7707166,32.5476048 Z M33.7082166,34.402097 C33.7082166,33.9274853 33.5324371,33.6052229 33.1808728,33.4353002 C32.9875125,33.3444794 32.7223784,33.2990697 32.3854627,33.2990697 L30.6452283,33.2990697 L30.6452283,35.5358861 L32.3854627,35.5358861 C32.7780427,35.5358861 33.0966431,35.4523908 33.3412732,35.2853978 C33.5859033,35.1184048 33.7082166,34.8239741 33.7082166,34.402097 Z M36.506654,32.5476048 L37.2976697,32.5476048 L37.2976697,39.0031712 L36.506654,39.0031712 L36.506654,32.5476048 Z M39.9906384,37.7507298 C39.9906384,37.9792466 40.0741337,38.1594206 40.2411267,38.2912572 C40.4081197,38.4230938 40.6058716,38.4890111 40.8343884,38.4890111 C41.1127101,38.4890111 41.3822387,38.4245586 41.6429821,38.2956517 C42.0824375,38.0817835 42.3021618,37.7316893 42.3021618,37.2453587 L42.3021618,36.6081517 C42.2054817,36.6696755 42.0809712,36.7209445 41.9286267,36.7619603 C41.7762822,36.8029761 41.6268696,36.8322727 41.4803845,36.8498509 L41.0013806,36.9113744 C40.7142698,36.9494605 40.4989399,37.0095185 40.3553845,37.0915502 C40.1122192,37.2292462 39.9906384,37.4489705 39.9906384,37.7507298 Z M41.906654,36.1511205 C42.0882956,36.1276828 42.2098764,36.0515117 42.2714001,35.9226048 C42.3065565,35.852292 42.3241345,35.7512188 42.3241345,35.6193822 C42.3241345,35.3498496 42.2281882,35.1542949 42.0362927,35.0327123 C41.8443972,34.9111296 41.5697417,34.8503392 41.2123181,34.8503392 C40.7992301,34.8503392 40.5062643,34.9616662 40.3334118,35.1843236 C40.2367317,35.3073711 40.173744,35.4904747 40.144447,35.73364 L39.4061657,35.73364 C39.4208142,35.153559 39.6090448,34.7499986 39.970863,34.5229466 C40.3326812,34.2958947 40.7523548,34.1823705 41.2298962,34.1823705 C41.7836099,34.1823705 42.2333124,34.2878382 42.5790173,34.4987767 C42.9217925,34.7097153 43.0931775,35.037837 43.0931775,35.4831517 L43.0931775,38.1945775 C43.0931775,38.2766092 43.110023,38.3425265 43.1437146,38.3923314 C43.1774061,38.4421363 43.2484504,38.4670384 43.3568493,38.4670384 C43.3920058,38.4670384 43.4315561,38.4648412 43.4755017,38.4604466 C43.5194472,38.4560521 43.5663217,38.4494604 43.6161267,38.4406712 L43.6161267,39.0251439 C43.4930792,39.0603003 43.3993301,39.0822728 43.3348767,39.0910619 C43.2704232,39.099851 43.1825335,39.1042455 43.0712048,39.1042455 C42.7987425,39.1042455 42.6009906,39.0075667 42.4779431,38.8142064 C42.4134896,38.7116668 42.3680799,38.5666487 42.3417126,38.3791478 C42.180579,38.5900864 41.949136,38.77319 41.6473767,38.9284642 C41.3456174,39.0837384 41.0131011,39.1613744 40.6498181,39.1613744 C40.2132925,39.1613744 39.8566066,39.0288073 39.5797497,38.7636693 C39.3028929,38.4985312 39.1644665,38.1667475 39.1644665,37.768308 C39.1644665,37.3317823 39.3006956,36.9934068 39.5731579,36.7531712 C39.8456202,36.5129357 40.2030385,36.3649879 40.6454236,36.3093236 L41.906654,36.1511205 Z M45.4477673,32.9826634 L46.247572,32.9826634 L46.247572,34.2966283 L46.9990368,34.2966283 L46.9990368,34.9426244 L46.247572,34.9426244 L46.247572,38.0144017 C46.247572,38.178465 46.3032355,38.2883272 46.4145642,38.3439916 C46.4760879,38.3762183 46.5786259,38.3923314 46.7221813,38.3923314 C46.7602675,38.3923314 46.8012827,38.391599 46.8452282,38.3901341 C46.8891737,38.3886693 46.9404428,38.3850072 46.9990368,38.3791478 L46.9990368,39.0031712 C46.908216,39.0295386 46.8137346,39.0485813 46.7155895,39.0603002 C46.6174445,39.072019 46.5112444,39.0778783 46.396986,39.0778783 C46.0278436,39.0778783 45.7773578,38.9833968 45.6455212,38.794431 C45.5136846,38.6054652 45.4477673,38.3601063 45.4477673,38.058347 L45.4477673,34.9426244 L44.8105602,34.9426244 L44.8105602,34.2966283 L45.4477673,34.2966283 L45.4477673,32.9826634 Z M48.8878063,33.5803197 C48.8995251,33.252193 48.9566535,33.0119611 49.059193,32.8596166 C49.2437643,32.590084 49.5997177,32.4553197 50.1270641,32.4553197 C50.1768691,32.4553197 50.2281381,32.4567845 50.2808727,32.4597142 C50.3336074,32.4626439 50.3936654,32.4670384 50.4610485,32.4728978 L50.4610485,33.1936009 C50.3790168,33.1877415 50.3196913,33.1840795 50.28307,33.1826146 C50.2464487,33.1811498 50.2120252,33.1804173 50.1797985,33.1804173 C49.9395629,33.1804173 49.7960097,33.2426726 49.7491344,33.3671849 C49.7022592,33.4916973 49.6788219,33.8088328 49.6788219,34.3186009 L50.4610485,34.3186009 L50.4610485,34.9426244 L49.6700329,34.9426244 L49.6700329,39.0031712 L48.8878063,39.0031712 L48.8878063,34.9426244 L48.2330212,34.9426244 L48.2330212,34.3186009 L48.8878063,34.3186009 L48.8878063,33.5803197 Z M53.9582164,38.4934056 C54.4826331,38.4934056 54.8422487,38.2949213 55.0370739,37.8979466 C55.2318991,37.500972 55.3293102,37.059326 55.3293102,36.5729955 C55.3293102,36.1335401 55.2589984,35.7761218 55.1183727,35.5007298 C54.8957153,35.0671339 54.5119301,34.8503392 53.9670055,34.8503392 C53.4836047,34.8503392 53.1320457,35.0349077 52.912318,35.4040502 C52.6925904,35.7731926 52.5827282,36.2185007 52.5827282,36.7399877 C52.5827282,37.2409667 52.6925904,37.658443 52.912318,37.9924291 C53.1320457,38.3264151 53.480675,38.4934056 53.9582164,38.4934056 Z M53.9889782,34.1603978 C54.5954265,34.1603978 55.1081167,34.3625442 55.5270641,34.7668431 C55.9460115,35.171142 56.1554821,35.7658626 56.1554821,36.5510228 C56.1554821,37.3098157 55.9709136,37.9367625 55.6017711,38.4318822 C55.2326287,38.9270018 54.6598805,39.174558 53.8835094,39.174558 C53.2360452,39.174558 52.7218902,38.955566 52.3410289,38.5175755 C51.9601677,38.0795851 51.7697399,37.4914562 51.7697399,36.7531712 C51.7697399,35.9621517 51.9704215,35.3322752 52.3717907,34.8635228 C52.7731599,34.3947705 53.312217,34.1603978 53.9889782,34.1603978 Z M58.0178844,34.2966283 L58.7693492,34.2966283 L58.7693492,35.1096166 C58.830873,34.9514126 58.9817504,34.7587876 59.221986,34.5317357 C59.4622215,34.3046838 59.7390742,34.1911595 60.0525524,34.1911595 C60.0672009,34.1911595 60.092103,34.1926244 60.1272594,34.1955541 C60.1624158,34.1984838 60.2224738,34.2043431 60.3074352,34.2131322 L60.3074352,35.0480931 C60.2605599,35.039304 60.2173475,35.0334447 60.1777965,35.030515 C60.1382455,35.0275853 60.0950331,35.0261205 60.0481578,35.0261205 C59.6497183,35.0261205 59.3435691,35.154293 59.1297008,35.410642 C58.9158325,35.6669909 58.8089,35.962154 58.8089,36.29614 L58.8089,39.0031712 L58.0178844,39.0031712 L58.0178844,34.2966283 Z M61.892982,34.2966283 L62.6752086,34.2966283 L62.6752086,34.964597 C62.8627095,34.7331506 63.0326297,34.5646952 63.1849742,34.4592259 C63.4457177,34.2805141 63.7416132,34.1911595 64.0726695,34.1911595 C64.4476714,34.1911595 64.7494262,34.2834438 64.977943,34.468015 C65.1068499,34.5734843 65.2240362,34.7287562 65.3295055,34.9338353 C65.5052876,34.6818809 65.7118285,34.4951152 65.9491344,34.3735326 C66.1864402,34.2519499 66.4530391,34.1911595 66.7489391,34.1911595 C67.3817547,34.1911595 67.8124145,34.4196729 68.0409312,34.8767064 C68.1639787,35.1228014 68.2255016,35.4538528 68.2255016,35.8698705 L68.2255016,39.0031712 L67.4037242,39.0031712 L67.4037242,35.73364 C67.4037242,35.4201619 67.3253559,35.204832 67.1686168,35.0876439 C67.0118777,34.9704558 66.8207175,34.9118627 66.5951305,34.9118627 C66.284582,34.9118627 66.0172507,35.0158655 65.7931285,35.2238744 C65.5690063,35.4318832 65.4569469,35.7790477 65.4569469,36.2653783 L65.4569469,39.0031712 L64.6527477,39.0031712 L64.6527477,35.9313939 C64.6527477,35.6120564 64.6146621,35.3791485 64.5384898,35.2326634 C64.4183721,35.0129358 64.1942532,34.9030736 63.8661266,34.9030736 C63.5672969,34.9030736 63.2955711,35.0187951 63.050941,35.2502416 C62.8063109,35.481688 62.6839977,35.9006292 62.6839977,36.5070775 L62.6839977,39.0031712 L61.892982,39.0031712 L61.892982,34.2966283 Z M73.8795054,32.5476048 L78.3575328,32.5476048 L78.3575328,33.3386205 L74.7540171,33.3386205 L74.7540171,35.2985814 L77.9224742,35.2985814 L77.9224742,36.0676244 L74.7540171,36.0676244 L74.7540171,39.0031712 L73.8795054,39.0031712 L73.8795054,32.5476048 Z M81.9557749,38.4934056 C82.4801916,38.4934056 82.8398072,38.2949213 83.0346323,37.8979466 C83.2294575,37.500972 83.3268687,37.059326 83.3268687,36.5729955 C83.3268687,36.1335401 83.2565569,35.7761218 83.1159312,35.5007298 C82.8932738,35.0671339 82.5094886,34.8503392 81.964564,34.8503392 C81.4811631,34.8503392 81.1296041,35.0349077 80.9098765,35.4040502 C80.6901488,35.7731926 80.5802866,36.2185007 80.5802866,36.7399877 C80.5802866,37.2409667 80.6901488,37.658443 80.9098765,37.9924291 C81.1296041,38.3264151 81.4782335,38.4934056 81.9557749,38.4934056 Z M81.9865366,34.1603978 C82.592985,34.1603978 83.1056752,34.3625442 83.5246226,34.7668431 C83.94357,35.171142 84.1530405,35.7658626 84.1530405,36.5510228 C84.1530405,37.3098157 83.9684721,37.9367625 83.5993296,38.4318822 C83.2301871,38.9270018 82.657439,39.174558 81.8810679,39.174558 C81.2336037,39.174558 80.7194487,38.955566 80.3385874,38.5175755 C79.9577261,38.0795851 79.7672984,37.4914562 79.7672984,36.7531712 C79.7672984,35.9621517 79.9679799,35.3322752 80.3693491,34.8635228 C80.7707183,34.3947705 81.3097754,34.1603978 81.9865366,34.1603978 Z M86.0154429,34.2966283 L86.7669077,34.2966283 L86.7669077,35.1096166 C86.8284315,34.9514126 86.9793089,34.7587876 87.2195444,34.5317357 C87.45978,34.3046838 87.7366327,34.1911595 88.0501108,34.1911595 C88.0647593,34.1911595 88.0896614,34.1926244 88.1248179,34.1955541 C88.1599743,34.1984838 88.2200323,34.2043431 88.3049936,34.2131322 L88.3049936,35.0480931 C88.2581184,35.039304 88.214906,35.0334447 88.175355,35.030515 C88.135804,35.0275853 88.0925915,35.0261205 88.0457163,35.0261205 C87.6472768,35.0261205 87.3411275,35.154293 87.1272593,35.410642 C86.913391,35.6669909 86.8064585,35.962154 86.8064585,36.29614 L86.8064585,39.0031712 L86.0154429,39.0031712 L86.0154429,34.2966283 Z M93.4799936,32.5476048 L97.9580209,32.5476048 L97.9580209,33.3386205 L94.3545053,33.3386205 L94.3545053,35.2985814 L97.5229624,35.2985814 L97.5229624,36.0676244 L94.3545053,36.0676244 L94.3545053,39.0031712 L93.4799936,39.0031712 L93.4799936,32.5476048 Z M99.6885873,34.3186009 L100.492787,34.3186009 L100.492787,39.0031712 L99.6885873,39.0031712 L99.6885873,34.3186009 Z M99.6885873,32.5476048 L100.492787,32.5476048 L100.492787,33.4440892 L99.6885873,33.4440892 L99.6885873,32.5476048 Z M102.588099,34.2966283 L103.339564,34.2966283 L103.339564,34.964597 C103.562221,34.689205 103.798059,34.4914531 104.047083,34.3713353 C104.296108,34.2512175 104.572961,34.1911595 104.87765,34.1911595 C105.545622,34.1911595 105.996789,34.4240674 106.231165,34.88989 C106.360072,35.1447741 106.424525,35.5095165 106.424525,35.9841283 L106.424525,39.0031712 L105.620326,39.0031712 L105.620326,36.0368627 C105.620326,35.7497518 105.577846,35.5183088 105.492884,35.3425267 C105.352258,35.0495565 105.097378,34.9030736 104.728236,34.9030736 C104.540735,34.9030736 104.386928,34.9221164 104.26681,34.9602025 C104.050012,35.0246559 103.859584,35.1535609 103.695521,35.3469212 C103.563684,35.5021955 103.477992,35.6625942 103.438441,35.8281224 C103.39889,35.9936506 103.379115,36.2302205 103.379115,36.5378392 L103.379115,39.0031712 L102.588099,39.0031712 L102.588099,34.2966283 Z M109.099915,37.7507298 C109.099915,37.9792466 109.183411,38.1594206 109.350404,38.2912572 C109.517397,38.4230938 109.715149,38.4890111 109.943665,38.4890111 C110.221987,38.4890111 110.491516,38.4245586 110.752259,38.2956517 C111.191714,38.0817835 111.411439,37.7316893 111.411439,37.2453587 L111.411439,36.6081517 C111.314759,36.6696755 111.190248,36.7209445 111.037904,36.7619603 C110.885559,36.8029761 110.736147,36.8322727 110.589661,36.8498509 L110.110658,36.9113744 C109.823547,36.9494605 109.608217,37.0095185 109.464661,37.0915502 C109.221496,37.2292462 109.099915,37.4489705 109.099915,37.7507298 Z M111.015931,36.1511205 C111.197573,36.1276828 111.319153,36.0515117 111.380677,35.9226048 C111.415834,35.852292 111.433411,35.7512188 111.433411,35.6193822 C111.433411,35.3498496 111.337465,35.1542949 111.14557,35.0327123 C110.953674,34.9111296 110.679019,34.8503392 110.321595,34.8503392 C109.908507,34.8503392 109.615541,34.9616662 109.442689,35.1843236 C109.346009,35.3073711 109.283021,35.4904747 109.253724,35.73364 L108.515443,35.73364 C108.530091,35.153559 108.718322,34.7499986 109.08014,34.5229466 C109.441958,34.2958947 109.861632,34.1823705 110.339173,34.1823705 C110.892887,34.1823705 111.342589,34.2878382 111.688294,34.4987767 C112.031069,34.7097153 112.202454,35.037837 112.202454,35.4831517 L112.202454,38.1945775 C112.202454,38.2766092 112.2193,38.3425265 112.252992,38.3923314 C112.286683,38.4421363 112.357727,38.4670384 112.466126,38.4670384 C112.501283,38.4670384 112.540833,38.4648412 112.584779,38.4604466 C112.628724,38.4560521 112.675599,38.4494604 112.725404,38.4406712 L112.725404,39.0251439 C112.602356,39.0603003 112.508607,39.0822728 112.444154,39.0910619 C112.3797,39.099851 112.29181,39.1042455 112.180482,39.1042455 C111.90802,39.1042455 111.710268,39.0075667 111.58722,38.8142064 C111.522767,38.7116668 111.477357,38.5666487 111.45099,38.3791478 C111.289856,38.5900864 111.058413,38.77319 110.756654,38.9284642 C110.454894,39.0837384 110.122378,39.1613744 109.759095,39.1613744 C109.322569,39.1613744 108.965884,39.0288073 108.689027,38.7636693 C108.41217,38.4985312 108.273744,38.1667475 108.273744,37.768308 C108.273744,37.3317823 108.409973,36.9934068 108.682435,36.7531712 C108.954897,36.5129357 109.312316,36.3649879 109.754701,36.3093236 L111.015931,36.1511205 Z M114.398841,34.2966283 L115.150306,34.2966283 L115.150306,34.964597 C115.372963,34.689205 115.608801,34.4914531 115.857826,34.3713353 C116.10685,34.2512175 116.383703,34.1911595 116.688392,34.1911595 C117.356364,34.1911595 117.807531,34.4240674 118.041908,34.88989 C118.170814,35.1447741 118.235267,35.5095165 118.235267,35.9841283 L118.235267,39.0031712 L117.431068,39.0031712 L117.431068,36.0368627 C117.431068,35.7497518 117.388588,35.5183088 117.303626,35.3425267 C117.163001,35.0495565 116.90812,34.9030736 116.538978,34.9030736 C116.351477,34.9030736 116.19767,34.9221164 116.077552,34.9602025 C115.860754,35.0246559 115.670326,35.1535609 115.506263,35.3469212 C115.374426,35.5021955 115.288734,35.6625942 115.249183,35.8281224 C115.209632,35.9936506 115.189857,36.2302205 115.189857,36.5378392 L115.189857,39.0031712 L114.398841,39.0031712 L114.398841,34.2966283 Z M122.119154,34.1603978 C122.64943,34.1603978 123.080822,34.2893028 123.413343,34.5471166 C123.745864,34.8049303 123.945813,35.2487736 124.013197,35.8786595 L123.244154,35.8786595 C123.197278,35.588619 123.090346,35.3476546 122.923353,35.1557591 C122.75636,34.9638636 122.488296,34.8679173 122.119154,34.8679173 C121.615245,34.8679173 121.254897,35.1140086 121.038099,35.6061986 C120.897473,35.9255361 120.827161,36.3195752 120.827161,36.7883275 C120.827161,37.2600095 120.92677,37.6569782 121.12599,37.9792455 C121.325209,38.3015127 121.638683,38.4626439 122.066419,38.4626439 C122.394546,38.4626439 122.654553,38.3623031 122.846449,38.1616185 C123.038344,37.9609339 123.170911,37.6862785 123.244154,37.3376439 L124.013197,37.3376439 C123.925306,37.9616705 123.705581,38.4179647 123.354017,38.7065404 C123.002453,38.995116 122.55275,39.1394017 122.004896,39.1394017 C121.389658,39.1394017 120.898941,38.9145504 120.532728,38.4648412 C120.166515,38.0151319 119.983411,37.4533699 119.983411,36.7795384 C119.983411,35.9533624 120.184093,35.3103025 120.585462,34.8503392 C120.986831,34.390376 121.498057,34.1603978 122.119154,34.1603978 Z M125.704212,34.3186009 L126.508411,34.3186009 L126.508411,39.0031712 L125.704212,39.0031712 L125.704212,34.3186009 Z M125.704212,32.5476048 L126.508411,32.5476048 L126.508411,33.4440892 L125.704212,33.4440892 L125.704212,32.5476048 Z M129.210169,37.7507298 C129.210169,37.9792466 129.293664,38.1594206 129.460657,38.2912572 C129.627651,38.4230938 129.825402,38.4890111 130.053919,38.4890111 C130.332241,38.4890111 130.601769,38.4245586 130.862513,38.2956517 C131.301968,38.0817835 131.521693,37.7316893 131.521693,37.2453587 L131.521693,36.6081517 C131.425012,36.6696755 131.300502,36.7209445 131.148157,36.7619603 C130.995813,36.8029761 130.8464,36.8322727 130.699915,36.8498509 L130.220911,36.9113744 C129.933801,36.9494605 129.718471,37.0095185 129.574915,37.0915502 C129.33175,37.2292462 129.210169,37.4489705 129.210169,37.7507298 Z M131.126185,36.1511205 C131.307826,36.1276828 131.429407,36.0515117 131.490931,35.9226048 C131.526087,35.852292 131.543665,35.7512188 131.543665,35.6193822 C131.543665,35.3498496 131.447719,35.1542949 131.255824,35.0327123 C131.063928,34.9111296 130.789273,34.8503392 130.431849,34.8503392 C130.018761,34.8503392 129.725795,34.9616662 129.552943,35.1843236 C129.456262,35.3073711 129.393275,35.4904747 129.363978,35.73364 L128.625697,35.73364 C128.640345,35.153559 128.828576,34.7499986 129.190394,34.5229466 C129.552212,34.2958947 129.971886,34.1823705 130.449427,34.1823705 C131.003141,34.1823705 131.452843,34.2878382 131.798548,34.4987767 C132.141323,34.7097153 132.312708,35.037837 132.312708,35.4831517 L132.312708,38.1945775 C132.312708,38.2766092 132.329554,38.3425265 132.363245,38.3923314 C132.396937,38.4421363 132.467981,38.4670384 132.57638,38.4670384 C132.611537,38.4670384 132.651087,38.4648412 132.695032,38.4604466 C132.738978,38.4560521 132.785853,38.4494604 132.835657,38.4406712 L132.835657,39.0251439 C132.71261,39.0603003 132.618861,39.0822728 132.554407,39.0910619 C132.489954,39.099851 132.402064,39.1042455 132.290736,39.1042455 C132.018273,39.1042455 131.820521,39.0075667 131.697474,38.8142064 C131.63302,38.7116668 131.587611,38.5666487 131.561243,38.3791478 C131.40011,38.5900864 131.168667,38.77319 130.866907,38.9284642 C130.565148,39.0837384 130.232632,39.1613744 129.869349,39.1613744 C129.432823,39.1613744 129.076137,39.0288073 128.799281,38.7636693 C128.522424,38.4985312 128.383997,38.1667475 128.383997,37.768308 C128.383997,37.3317823 128.520226,36.9934068 128.792689,36.7531712 C129.065151,36.5129357 129.422569,36.3649879 129.864954,36.3093236 L131.126185,36.1511205 Z M134.531068,32.5476048 L135.322083,32.5476048 L135.322083,39.0031712 L134.531068,39.0031712 L134.531068,32.5476048 Z M141.485853,36.9201634 C141.506361,37.2863762 141.592786,37.5837365 141.74513,37.8122533 C142.035171,38.2399898 142.546396,38.4538548 143.278821,38.4538548 C143.606948,38.4538548 143.905773,38.4069803 144.175306,38.3132298 C144.696793,38.1315883 144.957532,37.8063962 144.957532,37.3376439 C144.957532,36.9860796 144.84767,36.7355939 144.627943,36.5861791 C144.405285,36.439694 144.056656,36.3122538 143.582044,36.2038548 L142.707532,36.0061009 C142.136241,35.877194 141.731948,35.7351056 141.494642,35.5798314 C141.084484,35.3102988 140.879407,34.9074708 140.879407,34.3713353 C140.879407,33.7912543 141.080089,33.3151848 141.481458,32.9431127 C141.882827,32.5710405 142.451181,32.3850072 143.186536,32.3850072 C143.863298,32.3850072 144.438243,32.5483356 144.91139,32.8749974 C145.384537,33.2016592 145.621107,33.7238708 145.621107,34.4416478 L144.799329,34.4416478 C144.755384,34.095943 144.661635,33.8308089 144.518079,33.6462377 C144.251476,33.3093219 143.798844,33.1408666 143.160169,33.1408666 C142.644542,33.1408666 142.27394,33.2492639 142.048353,33.4660619 C141.822766,33.6828598 141.709974,33.9348104 141.709974,34.2219212 C141.709974,34.5383291 141.841808,34.7697721 142.105482,34.9162572 C142.278334,35.0100077 142.669443,35.127194 143.278821,35.2678197 L144.184095,35.4743627 C144.620621,35.5739725 144.957531,35.7102016 145.194837,35.8830541 C145.604995,36.1848134 145.810071,36.6227973 145.810071,37.1970189 C145.810071,37.9118662 145.550064,38.4230916 145.030042,38.7307103 C144.51002,39.038329 143.905778,39.1921361 143.217298,39.1921361 C142.41456,39.1921361 141.786148,38.98706 141.332044,38.5769017 C140.87794,38.1696731 140.655286,37.6174325 140.664075,36.9201634 L141.485853,36.9201634 Z M147.870228,32.9826634 L148.670032,32.9826634 L148.670032,34.2966283 L149.421497,34.2966283 L149.421497,34.9426244 L148.670032,34.9426244 L148.670032,38.0144017 C148.670032,38.178465 148.725696,38.2883272 148.837025,38.3439916 C148.898548,38.3762183 149.001086,38.3923314 149.144642,38.3923314 C149.182728,38.3923314 149.223743,38.391599 149.267689,38.3901341 C149.311634,38.3886693 149.362903,38.3850072 149.421497,38.3791478 L149.421497,39.0031712 C149.330676,39.0295386 149.236195,39.0485813 149.13805,39.0603002 C149.039905,39.072019 148.933705,39.0778783 148.819446,39.0778783 C148.450304,39.0778783 148.199818,38.9833968 148.067982,38.794431 C147.936145,38.6054652 147.870228,38.3601063 147.870228,38.058347 L147.870228,34.9426244 L147.233021,34.9426244 L147.233021,34.2966283 L147.870228,34.2966283 L147.870228,32.9826634 Z M151.718958,37.7507298 C151.718958,37.9792466 151.802453,38.1594206 151.969446,38.2912572 C152.136439,38.4230938 152.334191,38.4890111 152.562708,38.4890111 C152.84103,38.4890111 153.110558,38.4245586 153.371302,38.2956517 C153.810757,38.0817835 154.030482,37.7316893 154.030482,37.2453587 L154.030482,36.6081517 C153.933801,36.6696755 153.809291,36.7209445 153.656946,36.7619603 C153.504602,36.8029761 153.355189,36.8322727 153.208704,36.8498509 L152.7297,36.9113744 C152.44259,36.9494605 152.22726,37.0095185 152.083704,37.0915502 C151.840539,37.2292462 151.718958,37.4489705 151.718958,37.7507298 Z M153.634974,36.1511205 C153.816615,36.1276828 153.938196,36.0515117 153.99972,35.9226048 C154.034876,35.852292 154.052454,35.7512188 154.052454,35.6193822 C154.052454,35.3498496 153.956508,35.1542949 153.764612,35.0327123 C153.572717,34.9111296 153.298062,34.8503392 152.940638,34.8503392 C152.52755,34.8503392 152.234584,34.9616662 152.061732,35.1843236 C151.965051,35.3073711 151.902064,35.4904747 151.872767,35.73364 L151.134486,35.73364 C151.149134,35.153559 151.337365,34.7499986 151.699183,34.5229466 C152.061001,34.2958947 152.480675,34.1823705 152.958216,34.1823705 C153.51193,34.1823705 153.961632,34.2878382 154.307337,34.4987767 C154.650112,34.7097153 154.821497,35.037837 154.821497,35.4831517 L154.821497,38.1945775 C154.821497,38.2766092 154.838343,38.3425265 154.872034,38.3923314 C154.905726,38.4421363 154.97677,38.4670384 155.085169,38.4670384 C155.120326,38.4670384 155.159876,38.4648412 155.203821,38.4604466 C155.247767,38.4560521 155.294642,38.4494604 155.344446,38.4406712 L155.344446,39.0251439 C155.221399,39.0603003 155.12765,39.0822728 155.063196,39.0910619 C154.998743,39.099851 154.910853,39.1042455 154.799525,39.1042455 C154.527062,39.1042455 154.32931,39.0075667 154.206263,38.8142064 C154.141809,38.7116668 154.0964,38.5666487 154.070032,38.3791478 C153.908899,38.5900864 153.677456,38.77319 153.375696,38.9284642 C153.073937,39.0837384 152.741421,39.1613744 152.378138,39.1613744 C151.941612,39.1613744 151.584926,39.0288073 151.308069,38.7636693 C151.031213,38.4985312 150.892786,38.1667475 150.892786,37.768308 C150.892786,37.3317823 151.029015,36.9934068 151.301478,36.7531712 C151.57394,36.5129357 151.931358,36.3649879 152.373743,36.3093236 L153.634974,36.1511205 Z M157.017884,34.2966283 L157.769349,34.2966283 L157.769349,34.964597 C157.992006,34.689205 158.227844,34.4914531 158.476868,34.3713353 C158.725893,34.2512175 159.002746,34.1911595 159.307435,34.1911595 C159.975407,34.1911595 160.426574,34.4240674 160.66095,34.88989 C160.789857,35.1447741 160.85431,35.5095165 160.85431,35.9841283 L160.85431,39.0031712 L160.05011,39.0031712 L160.05011,36.0368627 C160.05011,35.7497518 160.00763,35.5183088 159.922669,35.3425267 C159.782043,35.0495565 159.527163,34.9030736 159.158021,34.9030736 C158.97052,34.9030736 158.816713,34.9221164 158.696595,34.9602025 C158.479797,35.0246559 158.289369,35.1535609 158.125306,35.3469212 C157.993469,35.5021955 157.907777,35.6625942 157.868226,35.8281224 C157.828675,35.9936506 157.8089,36.2302205 157.8089,36.5378392 L157.8089,39.0031712 L157.017884,39.0031712 L157.017884,34.2966283 Z M163.424232,36.7048314 C163.424232,37.2087402 163.531164,37.630611 163.745032,37.9704564 C163.958901,38.3103019 164.301671,38.480222 164.773353,38.480222 C165.139565,38.480222 165.440588,38.3227529 165.676429,38.0078099 C165.91227,37.6928669 166.030189,37.2409672 166.030189,36.652097 C166.030189,36.0573675 165.908608,35.6171863 165.665442,35.3315404 C165.422277,35.0458944 165.121987,34.9030736 164.764564,34.9030736 C164.366124,34.9030736 164.043129,35.0554158 163.795569,35.3601048 C163.54801,35.6647939 163.424232,36.1130316 163.424232,36.7048314 Z M164.61515,34.2131322 C164.975503,34.2131322 165.277258,34.2893033 165.520423,34.4416478 C165.661049,34.5295389 165.820715,34.6833459 165.999427,34.9030736 L165.999427,32.5256322 L166.759681,32.5256322 L166.759681,39.0031712 L166.047767,39.0031712 L166.047767,38.3483861 C165.863195,38.6384266 165.644936,38.8478972 165.392982,38.9768041 C165.141027,39.105711 164.852456,39.1701634 164.527259,39.1701634 C164.002842,39.1701634 163.548745,38.9497067 163.164954,38.5087865 C162.781163,38.0678663 162.589271,37.4812023 162.589271,36.7487767 C162.589271,36.0632264 162.764318,35.4692382 163.114417,34.9667943 C163.464517,34.4643504 163.964756,34.2131322 164.61515,34.2131322 Z M169.435071,37.7507298 C169.435071,37.9792466 169.518567,38.1594206 169.68556,38.2912572 C169.852553,38.4230938 170.050305,38.4890111 170.278821,38.4890111 C170.557143,38.4890111 170.826672,38.4245586 171.087415,38.2956517 C171.52687,38.0817835 171.746595,37.7316893 171.746595,37.2453587 L171.746595,36.6081517 C171.649915,36.6696755 171.525404,36.7209445 171.37306,36.7619603 C171.220715,36.8029761 171.071303,36.8322727 170.924817,36.8498509 L170.445814,36.9113744 C170.158703,36.9494605 169.943373,37.0095185 169.799817,37.0915502 C169.556652,37.2292462 169.435071,37.4489705 169.435071,37.7507298 Z M171.351087,36.1511205 C171.532729,36.1276828 171.654309,36.0515117 171.715833,35.9226048 C171.75099,35.852292 171.768567,35.7512188 171.768567,35.6193822 C171.768567,35.3498496 171.672621,35.1542949 171.480726,35.0327123 C171.28883,34.9111296 171.014175,34.8503392 170.656751,34.8503392 C170.243663,34.8503392 169.950697,34.9616662 169.777845,35.1843236 C169.681165,35.3073711 169.618177,35.4904747 169.58888,35.73364 L168.850599,35.73364 C168.865247,35.153559 169.053478,34.7499986 169.415296,34.5229466 C169.777114,34.2958947 170.196788,34.1823705 170.674329,34.1823705 C171.228043,34.1823705 171.677745,34.2878382 172.02345,34.4987767 C172.366225,34.7097153 172.53761,35.037837 172.53761,35.4831517 L172.53761,38.1945775 C172.53761,38.2766092 172.554456,38.3425265 172.588148,38.3923314 C172.621839,38.4421363 172.692883,38.4670384 172.801282,38.4670384 C172.836439,38.4670384 172.875989,38.4648412 172.919935,38.4604466 C172.96388,38.4560521 173.010755,38.4494604 173.06056,38.4406712 L173.06056,39.0251439 C172.937512,39.0603003 172.843763,39.0822728 172.77931,39.0910619 C172.714856,39.099851 172.626966,39.1042455 172.515638,39.1042455 C172.243175,39.1042455 172.045424,39.0075667 171.922376,38.8142064 C171.857923,38.7116668 171.812513,38.5666487 171.786146,38.3791478 C171.625012,38.5900864 171.393569,38.77319 171.09181,38.9284642 C170.79005,39.0837384 170.457534,39.1613744 170.094251,39.1613744 C169.657725,39.1613744 169.30104,39.0288073 169.024183,38.7636693 C168.747326,38.4985312 168.608899,38.1667475 168.608899,37.768308 C168.608899,37.3317823 168.745129,36.9934068 169.017591,36.7531712 C169.290053,36.5129357 169.647472,36.3649879 170.089857,36.3093236 L171.351087,36.1511205 Z M174.75597,34.2966283 L175.507435,34.2966283 L175.507435,35.1096166 C175.568958,34.9514126 175.719836,34.7587876 175.960071,34.5317357 C176.200307,34.3046838 176.47716,34.1911595 176.790638,34.1911595 C176.805286,34.1911595 176.830188,34.1926244 176.865345,34.1955541 C176.900501,34.1984838 176.960559,34.2043431 177.045521,34.2131322 L177.045521,35.0480931 C176.998645,35.039304 176.955433,35.0334447 176.915882,35.030515 C176.876331,35.0275853 176.833118,35.0261205 176.786243,35.0261205 C176.387804,35.0261205 176.081654,35.154293 175.867786,35.410642 C175.653918,35.6669909 175.546985,35.962154 175.546985,36.29614 L175.546985,39.0031712 L174.75597,39.0031712 L174.75597,34.2966283 Z M179.132044,36.7048314 C179.132044,37.2087402 179.238977,37.630611 179.452845,37.9704564 C179.666713,38.3103019 180.009483,38.480222 180.481165,38.480222 C180.847378,38.480222 181.1484,38.3227529 181.384241,38.0078099 C181.620082,37.6928669 181.738001,37.2409672 181.738001,36.652097 C181.738001,36.0573675 181.61642,35.6171863 181.373255,35.3315404 C181.13009,35.0458944 180.8298,34.9030736 180.472376,34.9030736 C180.073937,34.9030736 179.750942,35.0554158 179.503382,35.3601048 C179.255822,35.6647939 179.132044,36.1130316 179.132044,36.7048314 Z M180.322962,34.2131322 C180.683315,34.2131322 180.98507,34.2893033 181.228235,34.4416478 C181.368861,34.5295389 181.528527,34.6833459 181.707239,34.9030736 L181.707239,32.5256322 L182.467493,32.5256322 L182.467493,39.0031712 L181.755579,39.0031712 L181.755579,38.3483861 C181.571008,38.6384266 181.352748,38.8478972 181.100794,38.9768041 C180.84884,39.105711 180.560268,39.1701634 180.235071,39.1701634 C179.710655,39.1701634 179.256558,38.9497067 178.872767,38.5087865 C178.488976,38.0678663 178.297083,37.4812023 178.297083,36.7487767 C178.297083,36.0632264 178.47213,35.4692382 178.82223,34.9667943 C179.172329,34.4643504 179.672568,34.2131322 180.322962,34.2131322 Z M185.006653,37.5266087 C185.030091,37.7902819 185.096008,37.9924284 185.204407,38.1330541 C185.403627,38.3879381 185.749327,38.5153783 186.241517,38.5153783 C186.534487,38.5153783 186.792297,38.4516582 187.014954,38.3242162 C187.237611,38.1967741 187.348938,37.9997546 187.348938,37.7331517 C187.348938,37.5310023 187.259584,37.3771952 187.080872,37.2717259 C186.966614,37.2072725 186.74103,37.1325662 186.404114,37.0476048 L185.775696,36.8894017 C185.374327,36.7897918 185.078432,36.6784648 184.888001,36.5554173 C184.548156,36.3415491 184.378235,36.0456536 184.378235,35.667722 C184.378235,35.2224073 184.538634,34.8620593 184.859437,34.5866673 C185.180239,34.3112753 185.611631,34.1735814 186.153626,34.1735814 C186.862614,34.1735814 187.373839,34.3815871 187.687317,34.7976048 C187.883607,35.061278 187.978821,35.3454549 187.972962,35.6501439 L187.225892,35.6501439 C187.211243,35.4714321 187.148255,35.308836 187.036927,35.1623509 C186.855285,34.9543421 186.540347,34.8503392 186.092103,34.8503392 C185.793273,34.8503392 185.566957,34.9074676 185.413147,35.0217259 C185.259338,35.1359843 185.182435,35.2868617 185.182435,35.4743627 C185.182435,35.6794418 185.283508,35.8435027 185.485657,35.9665502 C185.602845,36.0397927 185.775695,36.1042452 186.004212,36.1599095 L186.527161,36.2873509 C187.095523,36.4250469 187.476379,36.5583464 187.669739,36.6872533 C187.977358,36.8894027 188.131165,37.2072706 188.131165,37.6408666 C188.131165,38.059814 187.972231,38.4216268 187.654358,38.7263158 C187.336486,39.0310048 186.85236,39.183347 186.201966,39.183347 C185.501767,39.183347 185.005922,39.0244131 184.714417,38.7065404 C184.422912,38.3886677 184.266907,37.9953611 184.246399,37.5266087 L185.006653,37.5266087 Z M193.640149,32.5476048 L194.52345,32.5476048 L194.52345,39.0031712 L193.640149,39.0031712 L193.640149,32.5476048 Z M196.737415,34.2966283 L197.519642,34.2966283 L197.519642,34.964597 C197.707142,34.7331506 197.877063,34.5646952 198.029407,34.4592259 C198.290151,34.2805141 198.586046,34.1911595 198.917102,34.1911595 C199.292104,34.1911595 199.593859,34.2834438 199.822376,34.468015 C199.951283,34.5734843 200.068469,34.7287562 200.173938,34.9338353 C200.349721,34.6818809 200.556261,34.4951152 200.793567,34.3735326 C201.030873,34.2519499 201.297472,34.1911595 201.593372,34.1911595 C202.226188,34.1911595 202.656847,34.4196729 202.885364,34.8767064 C203.008412,35.1228014 203.069935,35.4538528 203.069935,35.8698705 L203.069935,39.0031712 L202.248157,39.0031712 L202.248157,35.73364 C202.248157,35.4201619 202.169789,35.204832 202.01305,35.0876439 C201.856311,34.9704558 201.66515,34.9118627 201.439563,34.9118627 C201.129015,34.9118627 200.861684,35.0158655 200.637561,35.2238744 C200.413439,35.4318832 200.30138,35.7790477 200.30138,36.2653783 L200.30138,39.0031712 L199.497181,39.0031712 L199.497181,35.9313939 C199.497181,35.6120564 199.459095,35.3791485 199.382923,35.2326634 C199.262805,35.0129358 199.038686,34.9030736 198.71056,34.9030736 C198.41173,34.9030736 198.140004,35.0187951 197.895374,35.2502416 C197.650744,35.481688 197.528431,35.9006292 197.528431,36.5070775 L197.528431,39.0031712 L196.737415,39.0031712 L196.737415,34.2966283 Z M207.120813,38.471433 C207.489956,38.471433 207.796838,38.3168935 208.041468,38.0078099 C208.286098,37.6987263 208.408411,37.2365728 208.408411,36.6213353 C208.408411,36.2463334 208.354212,35.924071 208.245813,35.6545384 C208.040734,35.1359812 207.665738,34.8767064 207.120813,34.8767064 C206.572959,34.8767064 206.197963,35.1506294 205.995813,35.6984837 C205.887414,35.991454 205.833216,36.3635206 205.833216,36.8146947 C205.833216,37.1779778 205.887414,37.4870567 205.995813,37.7419408 C206.200893,38.2282713 206.575889,38.471433 207.120813,38.471433 Z M205.072962,34.3186009 L205.842005,34.3186009 L205.842005,34.9426244 C206.000209,34.7287561 206.173059,34.5632304 206.360559,34.4460423 C206.627162,34.2702602 206.940636,34.1823705 207.300989,34.1823705 C207.834195,34.1823705 208.286827,34.3867141 208.658899,34.7954076 C209.030972,35.204101 209.217005,35.7878354 209.217005,36.5466283 C209.217005,37.572024 208.948941,38.3044386 208.412806,38.7438939 C208.07296,39.0222156 207.677456,39.1613744 207.226282,39.1613744 C206.871788,39.1613744 206.574428,39.0837384 206.334192,38.9284642 C206.193567,38.8405732 206.03683,38.6896958 205.863977,38.4758275 L205.863977,40.8796361 L205.072962,40.8796361 L205.072962,34.3186009 Z M211.061829,32.5476048 L211.852845,32.5476048 L211.852845,39.0031712 L211.061829,39.0031712 L211.061829,32.5476048 Z M215.899329,34.1911595 C216.233315,34.1911595 216.557042,34.2695279 216.87052,34.426267 C217.183999,34.583006 217.422766,34.7858848 217.586829,35.0349095 C217.745033,35.2722154 217.850501,35.5490681 217.903235,35.8654759 C217.95011,36.0822739 217.973548,36.4279736 217.973548,36.9025853 L214.523841,36.9025853 C214.538489,37.3801268 214.651281,37.7631796 214.86222,38.0517552 C215.073158,38.3403309 215.399815,38.4846166 215.8422,38.4846166 C216.255288,38.4846166 216.584875,38.3483875 216.83097,38.0759252 C216.971595,37.9177212 217.071204,37.7346176 217.129798,37.5266087 L217.90763,37.5266087 C217.887122,37.6994612 217.819007,37.8920862 217.703284,38.1044896 C217.587561,38.316893 217.457923,38.4904753 217.314368,38.6252416 C217.074132,38.8596177 216.776772,39.0178193 216.422278,39.0998509 C216.231848,39.1467262 216.016518,39.1701634 215.776282,39.1701634 C215.190342,39.1701634 214.693765,38.9570308 214.286536,38.5307591 C213.879307,38.1044875 213.675696,37.5075696 213.675696,36.7399877 C213.675696,35.9841245 213.880772,35.3703611 214.290931,34.8986791 C214.701089,34.426997 215.237216,34.1911595 215.899329,34.1911595 Z M217.160559,36.2741673 C217.128333,35.9313922 217.053626,35.6574691 216.936438,35.45239 C216.71964,35.0715287 216.357828,34.8811009 215.850989,34.8811009 C215.487706,34.8811009 215.183022,35.0122031 214.936927,35.2744115 C214.690832,35.5366198 214.560462,35.8698684 214.545813,36.2741673 L217.160559,36.2741673 Z M219.844739,34.2966283 L220.626966,34.2966283 L220.626966,34.964597 C220.814467,34.7331506 220.984387,34.5646952 221.136731,34.4592259 C221.397475,34.2805141 221.69337,34.1911595 222.024427,34.1911595 C222.399428,34.1911595 222.701183,34.2834438 222.9297,34.468015 C223.058607,34.5734843 223.175793,34.7287562 223.281263,34.9338353 C223.457045,34.6818809 223.663586,34.4951152 223.900891,34.3735326 C224.138197,34.2519499 224.404796,34.1911595 224.700696,34.1911595 C225.333512,34.1911595 225.764172,34.4196729 225.992688,34.8767064 C226.115736,35.1228014 226.177259,35.4538528 226.177259,35.8698705 L226.177259,39.0031712 L225.355481,39.0031712 L225.355481,35.73364 C225.355481,35.4201619 225.277113,35.204832 225.120374,35.0876439 C224.963635,34.9704558 224.772475,34.9118627 224.546888,34.9118627 C224.236339,34.9118627 223.969008,35.0158655 223.744886,35.2238744 C223.520763,35.4318832 223.408704,35.7790477 223.408704,36.2653783 L223.408704,39.0031712 L222.604505,39.0031712 L222.604505,35.9313939 C222.604505,35.6120564 222.566419,35.3791485 222.490247,35.2326634 C222.370129,35.0129358 222.14601,34.9030736 221.817884,34.9030736 C221.519054,34.9030736 221.247328,35.0187951 221.002698,35.2502416 C220.758068,35.481688 220.635755,35.9006292 220.635755,36.5070775 L220.635755,39.0031712 L219.844739,39.0031712 L219.844739,34.2966283 Z M230.20177,34.1911595 C230.535756,34.1911595 230.859484,34.2695279 231.172962,34.426267 C231.48644,34.583006 231.725207,34.7858848 231.88927,35.0349095 C232.047474,35.2722154 232.152942,35.5490681 232.205677,35.8654759 C232.252552,36.0822739 232.275989,36.4279736 232.275989,36.9025853 L228.826282,36.9025853 C228.840931,37.3801268 228.953722,37.7631796 229.164661,38.0517552 C229.3756,38.3403309 229.702256,38.4846166 230.144641,38.4846166 C230.557729,38.4846166 230.887316,38.3483875 231.133411,38.0759252 C231.274037,37.9177212 231.373645,37.7346176 231.432239,37.5266087 L232.210071,37.5266087 C232.189563,37.6994612 232.121449,37.8920862 232.005725,38.1044896 C231.890002,38.316893 231.760365,38.4904753 231.616809,38.6252416 C231.376574,38.8596177 231.079214,39.0178193 230.72472,39.0998509 C230.534289,39.1467262 230.318959,39.1701634 230.078723,39.1701634 C229.492783,39.1701634 228.996206,38.9570308 228.588977,38.5307591 C228.181749,38.1044875 227.978138,37.5075696 227.978138,36.7399877 C227.978138,35.9841245 228.183214,35.3703611 228.593372,34.8986791 C229.00353,34.426997 229.539658,34.1911595 230.20177,34.1911595 Z M231.463001,36.2741673 C231.430774,35.9313922 231.356068,35.6574691 231.23888,35.45239 C231.022082,35.0715287 230.660269,34.8811009 230.15343,34.8811009 C229.790147,34.8811009 229.485463,35.0122031 229.239368,35.2744115 C228.993273,35.5366198 228.862903,35.8698684 228.848255,36.2741673 L231.463001,36.2741673 Z M234.14718,34.2966283 L234.898645,34.2966283 L234.898645,34.964597 C235.121303,34.689205 235.35714,34.4914531 235.606165,34.3713353 C235.85519,34.2512175 236.132042,34.1911595 236.436731,34.1911595 C237.104703,34.1911595 237.555871,34.4240674 237.790247,34.88989 C237.919154,35.1447741 237.983606,35.5095165 237.983606,35.9841283 L237.983606,39.0031712 L237.179407,39.0031712 L237.179407,36.0368627 C237.179407,35.7497518 237.136927,35.5183088 237.051966,35.3425267 C236.91134,35.0495565 236.65646,34.9030736 236.287317,34.9030736 C236.099816,34.9030736 235.946009,34.9221164 235.825891,34.9602025 C235.609093,35.0246559 235.418666,35.1535609 235.254602,35.3469212 C235.122766,35.5021955 235.037073,35.6625942 234.997522,35.8281224 C234.957971,35.9936506 234.938196,36.2302205 234.938196,36.5378392 L234.938196,39.0031712 L234.14718,39.0031712 L234.14718,34.2966283 Z M240.210755,32.9826634 L241.010559,32.9826634 L241.010559,34.2966283 L241.762024,34.2966283 L241.762024,34.9426244 L241.010559,34.9426244 L241.010559,38.0144017 C241.010559,38.178465 241.066223,38.2883272 241.177552,38.3439916 C241.239075,38.3762183 241.341613,38.3923314 241.485169,38.3923314 C241.523255,38.3923314 241.56427,38.391599 241.608216,38.3901341 C241.652161,38.3886693 241.70343,38.3850072 241.762024,38.3791478 L241.762024,39.0031712 C241.671203,39.0295386 241.576722,39.0485813 241.478577,39.0603002 C241.380432,39.072019 241.274232,39.0778783 241.159973,39.0778783 C240.790831,39.0778783 240.540345,38.9833968 240.408509,38.794431 C240.276672,38.6054652 240.210755,38.3601063 240.210755,38.058347 L240.210755,34.9426244 L239.573548,34.9426244 L239.573548,34.2966283 L240.210755,34.2966283 L240.210755,32.9826634 Z M244.059485,37.7507298 C244.059485,37.9792466 244.14298,38.1594206 244.309973,38.2912572 C244.476966,38.4230938 244.674718,38.4890111 244.903235,38.4890111 C245.181557,38.4890111 245.451085,38.4245586 245.711829,38.2956517 C246.151284,38.0817835 246.371009,37.7316893 246.371009,37.2453587 L246.371009,36.6081517 C246.274328,36.6696755 246.149818,36.7209445 245.997473,36.7619603 C245.845129,36.8029761 245.695716,36.8322727 245.549231,36.8498509 L245.070227,36.9113744 C244.783116,36.9494605 244.567787,37.0095185 244.424231,37.0915502 C244.181066,37.2292462 244.059485,37.4489705 244.059485,37.7507298 Z M245.975501,36.1511205 C246.157142,36.1276828 246.278723,36.0515117 246.340247,35.9226048 C246.375403,35.852292 246.392981,35.7512188 246.392981,35.6193822 C246.392981,35.3498496 246.297035,35.1542949 246.105139,35.0327123 C245.913244,34.9111296 245.638588,34.8503392 245.281165,34.8503392 C244.868077,34.8503392 244.575111,34.9616662 244.402259,35.1843236 C244.305578,35.3073711 244.242591,35.4904747 244.213294,35.73364 L243.475012,35.73364 C243.489661,35.153559 243.677891,34.7499986 244.03971,34.5229466 C244.401528,34.2958947 244.821201,34.1823705 245.298743,34.1823705 C245.852457,34.1823705 246.302159,34.2878382 246.647864,34.4987767 C246.990639,34.7097153 247.162024,35.037837 247.162024,35.4831517 L247.162024,38.1945775 C247.162024,38.2766092 247.17887,38.3425265 247.212561,38.3923314 C247.246253,38.4421363 247.317297,38.4670384 247.425696,38.4670384 C247.460852,38.4670384 247.500403,38.4648412 247.544348,38.4604466 C247.588294,38.4560521 247.635168,38.4494604 247.684973,38.4406712 L247.684973,39.0251439 C247.561926,39.0603003 247.468177,39.0822728 247.403723,39.0910619 C247.33927,39.099851 247.25138,39.1042455 247.140052,39.1042455 C246.867589,39.1042455 246.669837,39.0075667 246.54679,38.8142064 C246.482336,38.7116668 246.436927,38.5666487 246.410559,38.3791478 C246.249426,38.5900864 246.017983,38.77319 245.716223,38.9284642 C245.414464,39.0837384 245.081948,39.1613744 244.718665,39.1613744 C244.282139,39.1613744 243.925453,39.0288073 243.648596,38.7636693 C243.37174,38.4985312 243.233313,38.1667475 243.233313,37.768308 C243.233313,37.3317823 243.369542,36.9934068 243.642005,36.7531712 C243.914467,36.5129357 244.271885,36.3649879 244.71427,36.3093236 L245.975501,36.1511205 Z M249.516614,32.9826634 L250.316419,32.9826634 L250.316419,34.2966283 L251.067884,34.2966283 L251.067884,34.9426244 L250.316419,34.9426244 L250.316419,38.0144017 C250.316419,38.178465 250.372082,38.2883272 250.483411,38.3439916 C250.544935,38.3762183 250.647473,38.3923314 250.791028,38.3923314 C250.829114,38.3923314 250.870129,38.391599 250.914075,38.3901341 C250.95802,38.3886693 251.009289,38.3850072 251.067884,38.3791478 L251.067884,39.0031712 C250.977063,39.0295386 250.882581,39.0485813 250.784436,39.0603002 C250.686291,39.072019 250.580091,39.0778783 250.465833,39.0778783 C250.09669,39.0778783 249.846204,38.9833968 249.714368,38.794431 C249.582531,38.6054652 249.516614,38.3601063 249.516614,38.058347 L249.516614,34.9426244 L248.879407,34.9426244 L248.879407,34.2966283 L249.516614,34.2966283 L249.516614,32.9826634 Z M252.758899,34.3186009 L253.563098,34.3186009 L253.563098,39.0031712 L252.758899,39.0031712 L252.758899,34.3186009 Z M252.758899,32.5476048 L253.563098,32.5476048 L253.563098,33.4440892 L252.758899,33.4440892 L252.758899,32.5476048 Z M257.526087,38.4934056 C258.050503,38.4934056 258.410119,38.2949213 258.604944,37.8979466 C258.799769,37.500972 258.89718,37.059326 258.89718,36.5729955 C258.89718,36.1335401 258.826869,35.7761218 258.686243,35.5007298 C258.463585,35.0671339 258.0798,34.8503392 257.534876,34.8503392 C257.051475,34.8503392 256.699916,35.0349077 256.480188,35.4040502 C256.26046,35.7731926 256.150598,36.2185007 256.150598,36.7399877 C256.150598,37.2409667 256.26046,37.658443 256.480188,37.9924291 C256.699916,38.3264151 257.048545,38.4934056 257.526087,38.4934056 Z M257.556848,34.1603978 C258.163297,34.1603978 258.675987,34.3625442 259.094934,34.7668431 C259.513882,35.171142 259.723352,35.7658626 259.723352,36.5510228 C259.723352,37.3098157 259.538784,37.9367625 259.169641,38.4318822 C258.800499,38.9270018 258.227751,39.174558 257.45138,39.174558 C256.803915,39.174558 256.28976,38.955566 255.908899,38.5175755 C255.528038,38.0795851 255.33761,37.4914562 255.33761,36.7531712 C255.33761,35.9621517 255.538292,35.3322752 255.939661,34.8635228 C256.34103,34.3947705 256.880087,34.1603978 257.556848,34.1603978 Z M261.563782,34.2966283 L262.315247,34.2966283 L262.315247,34.964597 C262.537904,34.689205 262.773742,34.4914531 263.022766,34.3713353 C263.271791,34.2512175 263.548644,34.1911595 263.853333,34.1911595 C264.521305,34.1911595 264.972472,34.4240674 265.206848,34.88989 C265.335755,35.1447741 265.400208,35.5095165 265.400208,35.9841283 L265.400208,39.0031712 L264.596008,39.0031712 L264.596008,36.0368627 C264.596008,35.7497518 264.553528,35.5183088 264.468567,35.3425267 C264.327941,35.0495565 264.073061,34.9030736 263.703919,34.9030736 C263.516418,34.9030736 263.362611,34.9221164 263.242493,34.9602025 C263.025695,35.0246559 262.835267,35.1535609 262.671204,35.3469212 C262.539367,35.5021955 262.453675,35.6625942 262.414124,35.8281224 C262.374573,35.9936506 262.354798,36.2302205 262.354798,36.5378392 L262.354798,39.0031712 L261.563782,39.0031712 L261.563782,34.2966283 Z" id="path-4"></path>
    </defs>
    <g id="Page-1" stroke="none" stroke-width="1" fill="none" fill-rule="evenodd">
        <g id="Group" transform="translate(0.000000, -5.000000)">
            <g id="Group-2" transform="translate(50.000000, 0.000000)">
                <g id="">
                    <use fill="#4A4A4A" xlink:href="#path-2"></use>
                    <use fill="url(#linearGradient-1)" xlink:href="#path-2"></use>
                </g>
                <g id="Data-Platform-For-Fi">
                    <use fill="#4A4A4A" xlink:href="#path-4"></use>
                    <use fill="url(#linearGradient-3)" xlink:href="#path-4"></use>
                </g>
            </g>
            <g id="Standard" transform="translate(0.000000, 5.000000)" fill-rule="nonzero">
                <path shape-rendering="optimizeQuality" d="M19.3699358,35.0509183 C18.5138038,35.4908077 17.4004584,35.4908077 16.5422504,35.0509183 L0.513648093,27.1639728 C-0.171216031,26.8681543 -0.171216031,26.1304826 0.513648093,25.8348427 L4.28486412,23.994234 C4.54460449,23.8451815 4.88312419,23.8451815 5.14286456,23.994234 L14.9138557,28.7841011 C15.8567635,29.2266684 16.8860319,29.448934 18.0006228,29.448934 C19.1139681,29.448934 20.1432365,29.2266684 21.0867671,28.7841011 L30.8571354,23.994234 C31.1160467,23.8451876 31.453941,23.8451876 31.7128523,23.994234 L35.4842759,25.8346641 C36.1716312,26.1303041 36.1716312,26.8681543 35.4842759,27.1637942 L19.3699358,35.0509183 Z M19.3699358,26.2036785 C18.5138038,26.6474955 17.4004584,26.6474955 16.5422504,26.2036785 L0.513648093,18.3169115 C-0.171216031,18.0232353 -0.171216031,17.2853851 0.513648093,16.9915304 L4.28465653,15.1471727 C4.54514269,15.000252 4.8821708,15.000252 5.14265696,15.1471727 L14.9138557,19.9390036 C15.8567635,20.3794286 16.8860319,20.6020512 18.0006228,20.6020512 C19.1139681,20.6020512 20.1432365,20.3794286 21.0867671,19.9390036 L30.8571354,15.1471727 C31.1167332,15.0000825 31.4532545,15.0000825 31.7128523,15.1471727 L35.4844835,16.9917089 C36.1718388,17.2855636 36.1718388,18.0234138 35.4844835,18.3169115 L19.3699358,26.2033214 L19.3699358,26.2036785 Z" id="Shape" fill="#0766D9"></path>
                <path d="M16.5883297,17.4140561 L0.512736875,9.53548858 C-0.170912292,9.24033433 -0.170912292,8.50503465 0.512736875,8.20952372 L16.5883297,0.331312874 C17.444082,-0.110437625 18.5562286,-0.110437625 19.4119809,0.331312874 L35.4875738,8.20970206 C36.1708087,8.50503465 36.1708087,9.24015599 35.4875738,9.53566692 L19.4113596,17.4142345 C18.5562286,17.7825085 17.4442891,17.7825085 16.5883297,17.4140561 Z" id="Path" fill="#419DF8"></path>
            </g>
        </g>
    </g>
</svg>