<?xml version="1.0" encoding="UTF-8"?>
<svg width="72px" height="72px" viewBox="0 0 72 72" version="1.1" xmlns="http://www.w3.org/2000/svg" xmlns:xlink="http://www.w3.org/1999/xlink">
    <!-- Generator: Sketch 52.6 (67491) - http://www.bohemiancoding.com/sketch -->
    <title>Standard</title>
    <desc>Created with Sketch.</desc>
    <g id="Page-1" stroke="none" stroke-width="1" fill="none" fill-rule="evenodd">
        <g id="Standard" fill-rule="nonzero">
            <path d="M38.7398717,71.3282189 C37.0276076,72.223927 34.8009169,72.223927 33.0845008,71.3282189 L1.02729619,55.2687255 C-0.342432062,54.6663763 -0.342432062,53.1643204 1.02729619,52.5623348 L8.56972825,48.8144653 C9.08920899,48.5109628 9.76624837,48.5109628 10.2857291,48.8144653 L29.8277114,58.5676504 C31.713527,59.4688112 33.7720637,59.921391 36.0012456,59.921391 C38.2279363,59.921391 40.286473,59.4688112 42.1735342,58.5676504 L61.7142709,48.8144653 C62.2320934,48.5109753 62.9078821,48.5109753 63.4257046,48.8144653 L70.9685519,52.5619713 C72.3432625,53.1639569 72.3432625,54.6663763 70.9685519,55.268362 L38.7398717,71.3282189 Z M38.7398717,53.3133627 C37.0276076,54.2170682 34.8009169,54.2170682 33.0845008,53.3133627 L1.02729619,37.2542328 C-0.342432062,36.6562459 -0.342432062,35.1538264 1.02729619,34.555476 L8.56931305,30.7999726 C9.09028537,30.500811 9.7643416,30.500811 10.2853139,30.7999726 L29.8277114,40.5571564 C31.713527,41.453955 33.7720637,41.9072618 36.0012456,41.9072618 C38.2279363,41.9072618 40.286473,41.453955 42.1735342,40.5571564 L61.7142709,30.7999726 C62.2334665,30.5004657 62.906509,30.5004657 63.4257046,30.7999726 L70.9689671,34.5558395 C72.3436776,35.15419 72.3436776,36.6566094 70.9689671,37.2542328 L38.7398717,53.3126357 L38.7398717,53.3133627 Z" id="Shape" fill="#F89536"></path>
            <path d="M33.1766594,34.9521576 L1.02547375,19.1389012 C-0.341824583,18.5464902 -0.341824583,17.0706531 1.02547375,16.4775262 L33.1766594,0.664985785 C34.888164,-0.221661928 37.1124573,-0.221661928 38.8239619,0.664985785 L70.9751476,16.4778842 C72.3416175,17.0706531 72.3416175,18.5461323 70.9751476,19.1392591 L38.8227193,34.9525155 C37.1124573,35.6916869 34.8885782,35.6916869 33.1766594,34.9521576 Z" id="Path" fill="#F9C957"></path>
        </g>
    </g>
</svg>